<?xml version="1.0" encoding="iso-8859-1"?>
<!-- Generator: Adobe Illustrator 19.0.0, SVG Export Plug-In . SVG Version: 6.00 Build 0)  -->
<svg version="1.1" id="Layer_1" xmlns="http://www.w3.org/2000/svg" xmlns:xlink="http://www.w3.org/1999/xlink" x="0px" y="0px"
	 viewBox="0 0 511.991 511.991" style="enable-background:new 0 0 511.991 511.991;" xml:space="preserve">
<path style="fill:#48CFAD;" d="M319.994,95.998c-2.125,0-4.249-0.625-6.093-1.922c-4.844-3.359-6.031-10.016-2.656-14.844
	l9.78-14.015l-11.905-11.89h-40.577h-6.039c-3.602,0-6.711,0-9.836-3.125c-4.164-4.156-4.164-10.906,0-15.078
	c2.078-2.078,4.812-3.125,7.539-3.125c0.008,0,0.016,0,0.016,0l0,0c0.625,0,53.319,0,53.319,0c2.827,0,5.546,1.125,7.546,3.125
	l21.328,21.328c3.656,3.656,4.172,9.406,1.203,13.656l-14.875,21.328C326.682,94.406,323.353,95.998,319.994,95.998z"/>
<g>
	<path style="fill:#434A54;" d="M319.994,479.991c-51.287,0-99.498-19.969-135.762-56.234
		c-36.265-36.264-56.233-84.482-56.233-135.762c0-51.281,19.968-99.499,56.233-135.763c36.265-36.265,84.475-56.233,135.762-56.233
		c51.281,0,99.498,19.968,135.764,56.233s56.233,84.482,56.233,135.763c0,51.279-19.968,99.498-56.233,135.762
		C419.492,460.022,371.275,479.991,319.994,479.991z M319.994,117.326c-45.592,0-88.443,17.765-120.677,49.999
		s-49.983,75.077-49.983,120.67c0,45.592,17.75,88.436,49.983,120.686c32.234,32.232,75.085,49.982,120.677,49.982
		c45.594,0,88.437-17.75,120.686-49.982c32.219-32.25,49.969-75.094,49.969-120.686c0-45.593-17.75-88.436-49.969-120.67
		C408.431,135.091,365.588,117.326,319.994,117.326z"/>
	<path style="fill:#434A54;" d="M63.999,479.991c-35.288,0-63.999-28.703-63.999-64c0-35.295,28.71-63.998,63.999-63.998
		s63.999,28.703,63.999,63.998C127.998,451.288,99.288,479.991,63.999,479.991z M63.999,373.321
		c-23.523,0-42.663,19.141-42.663,42.67c0,23.531,19.14,42.672,42.663,42.672s42.664-19.141,42.664-42.672
		C106.663,392.462,87.523,373.321,63.999,373.321z"/>
	<path style="fill:#434A54;" d="M350.166,328.837c-2.734,0-5.453-1.047-7.547-3.125l-15.094-15.094
		c-4.156-4.154-4.156-10.92,0-15.076c4.188-4.172,10.938-4.172,15.094,0l15.094,15.076c4.156,4.172,4.156,10.922,0,15.094
		C355.619,327.79,352.9,328.837,350.166,328.837z"/>
	<path style="fill:#434A54;" d="M304.901,283.573c-2.719,0-5.453-1.031-7.531-3.125l-15.093-15.078
		c-4.156-4.172-4.156-10.921,0-15.093c4.172-4.156,10.937-4.156,15.093,0l15.094,15.093c4.155,4.156,4.155,10.922,0,15.078
		C310.37,282.542,307.651,283.573,304.901,283.573z"/>
</g>
<path style="fill:#E6E9ED;" d="M319.994,298.667c-5.89,0-10.655-4.781-10.655-10.672V85.327c0-5.891,4.766-10.656,10.655-10.656
	c5.891,0,10.656,4.766,10.656,10.656v202.668C330.65,293.886,325.885,298.667,319.994,298.667z"/>
<path style="fill:#CCD1D9;" d="M202.661,135.857c-5.891,0-10.664-4.781-10.664-10.672V85.327c0-5.891,4.773-10.656,10.664-10.656
	s10.672,4.766,10.672,10.656v39.858C213.333,131.076,208.552,135.857,202.661,135.857z"/>
<path style="fill:#F5F7FA;" d="M335.088,272.917c8.312,8.328,8.312,21.828,0,30.156c-8.344,8.342-21.843,8.342-30.187,0
	c-8.312-8.328-8.312-21.828,0-30.156C313.245,264.573,326.744,264.573,335.088,272.917z"/>
<path style="fill:#E6E9ED;" d="M63.999,426.663c-5.89,0-10.664-4.781-10.664-10.672c0-68.748,5.188-155.918,45.632-220.338
	c20.007-31.859,47.569-56.343,81.928-72.78C218.183,105.047,264.987,96,319.993,96c5.891,0,10.656,4.781,10.656,10.671
	c0,5.891-4.766,10.656-10.656,10.656c-98.685,0-165.074,29.343-202.964,89.67c-37.546,59.812-42.366,143.106-42.366,208.995
	C74.663,421.882,69.89,426.663,63.999,426.663z"/>
<path style="fill:#48CFAD;" d="M245.332,95.998h-63.999c-5.891,0-10.672-4.781-10.672-10.672s4.781-10.656,10.672-10.656h63.999
	c5.891,0,10.664,4.766,10.664,10.656S251.223,95.998,245.332,95.998z"/>
<g>
</g>
<g>
</g>
<g>
</g>
<g>
</g>
<g>
</g>
<g>
</g>
<g>
</g>
<g>
</g>
<g>
</g>
<g>
</g>
<g>
</g>
<g>
</g>
<g>
</g>
<g>
</g>
<g>
</g>
</svg>
