<?xml version="1.0" encoding="iso-8859-1"?>
<!-- Generator: Adobe Illustrator 19.0.0, SVG Export Plug-In . SVG Version: 6.00 Build 0)  -->
<svg version="1.1" id="Layer_1" xmlns="http://www.w3.org/2000/svg" xmlns:xlink="http://www.w3.org/1999/xlink" x="0px" y="0px"
	 viewBox="0 0 512 512" style="enable-background:new 0 0 512 512;" xml:space="preserve">
<circle style="fill:#FFF59B;" cx="256" cy="256" r="256"/>
<path style="fill:#FFD782;" d="M3.87,300.138C24.796,420.477,129.676,512,256,512s231.204-91.523,252.13-211.862H3.87z"/>
<g>
	<path style="fill:#FFB469;" d="M220.69,344.276H79.448c-4.875,0-8.828-3.953-8.828-8.828l0,0c0-4.875,3.953-8.828,8.828-8.828
		H220.69c4.875,0,8.828,3.953,8.828,8.828l0,0C229.517,340.323,225.565,344.276,220.69,344.276z"/>
	<path style="fill:#FFB469;" d="M432.552,344.276H291.31c-4.875,0-8.828-3.953-8.828-8.828l0,0c0-4.875,3.953-8.828,8.828-8.828
		h141.241c4.875,0,8.828,3.953,8.828,8.828l0,0C441.379,340.323,437.427,344.276,432.552,344.276z"/>
</g>
<path style="fill:#6EC8E6;" d="M480.103,379.586c3.179-5.757,6.155-11.638,8.894-17.655H23.004
	c2.738,6.017,5.714,11.898,8.893,17.655H480.103z"/>
<path style="fill:#FF5550;" d="M70.761,432.552c5.888,6.181,12.06,12.087,18.535,17.655h333.407
	c6.476-5.568,12.647-11.474,18.535-17.655H70.761z"/>
<g>
	<path style="fill:#46415F;" d="M349.432,494.345c12.628-4.958,24.792-10.84,36.349-17.655H126.219
		c11.556,6.815,23.721,12.697,36.349,17.655H349.432z"/>
	<path style="fill:#46415F;" d="M419.794,292.793l-49.035-32.69v-65.897c0-4.876-3.953-8.828-8.828-8.828s-8.828,3.951-8.828,8.828
		v65.897l-49.035,32.69c-4.057,2.705-5.153,8.185-2.449,12.242c1.7,2.552,4.5,3.933,7.353,3.933c1.682,0,3.383-0.481,4.888-1.484
		l48.069-32.046l48.07,32.046c1.505,1.004,3.206,1.484,4.888,1.484c2.854,0,5.653-1.38,7.353-3.933
		C424.946,300.978,423.85,295.497,419.794,292.793z"/>
</g>
<path style="fill:#413241;" d="M150.069,344.276c-43.808,0-79.448-35.64-79.448-79.448s35.64-79.448,79.448-79.448
	s79.448,35.64,79.448,79.448S193.877,344.276,150.069,344.276z M150.069,203.034c-34.073,0-61.793,27.721-61.793,61.793
	s27.72,61.793,61.793,61.793s61.793-27.721,61.793-61.793S184.142,203.034,150.069,203.034z"/>
<circle style="fill:#46415F;" cx="150.069" cy="264.828" r="61.793"/>
<path style="fill:#413241;" d="M361.931,344.276c-43.808,0-79.448-35.64-79.448-79.448s35.64-79.448,79.448-79.448
	s79.448,35.64,79.448,79.448S405.739,344.276,361.931,344.276z M361.931,203.034c-34.073,0-61.793,27.721-61.793,61.793
	s27.72,61.793,61.793,61.793s61.793-27.721,61.793-61.793S396.004,203.034,361.931,203.034z"/>
<path style="fill:#46415F;" d="M361.931,176.552c-4.875,0-8.828-3.953-8.828-8.828s3.953-8.828,8.828-8.828
	c2.435,0,4.414-1.978,4.414-4.414s-1.978-4.414-4.414-4.414h-17.655v17.655c0,4.875-3.953,8.828-8.828,8.828
	s-8.828-3.953-8.828-8.828v-26.483c0-4.875,3.953-8.828,8.828-8.828h26.483c12.168,0,22.069,9.901,22.069,22.069
	S374.099,176.552,361.931,176.552z"/>
<path style="fill:#6EC8E6;" d="M370.447,262.505l-26.483-97.103c-0.01-0.035-0.026-0.066-0.038-0.102
	c-0.243-0.852-0.615-1.671-1.116-2.429c-0.038-0.057-0.074-0.115-0.113-0.171c-0.237-0.342-0.499-0.67-0.789-0.981
	c-0.053-0.056-0.109-0.109-0.163-0.164c-0.119-0.121-0.233-0.246-0.36-0.362c-0.158-0.143-0.324-0.273-0.49-0.403
	c-0.044-0.035-0.085-0.073-0.13-0.107c-0.341-0.258-0.698-0.483-1.064-0.685c-0.064-0.035-0.129-0.068-0.194-0.103
	c-0.386-0.201-0.78-0.377-1.185-0.518c-0.017-0.006-0.033-0.009-0.05-0.014c-0.408-0.138-0.824-0.239-1.244-0.316
	c-0.06-0.011-0.118-0.025-0.178-0.034c-0.426-0.068-0.854-0.102-1.283-0.107c-0.042-0.001-0.081-0.01-0.121-0.01H196.808
	l-12.591-22.035c-2.418-4.232-7.808-5.705-12.044-3.285c-4.234,2.419-5.704,7.811-3.286,12.044l25.752,45.067l-51.631,68.843
	c-2.005,2.675-2.328,6.254-0.833,9.244c1.495,2.99,4.552,4.879,7.895,4.879c0,0,96.785,0,97.105,0c2.472,0,4.847-1.038,6.531-2.89
	l77.459-85.204l22.252,81.589c1.07,3.926,4.628,6.507,8.511,6.507c0.769,0,1.55-0.102,2.327-0.313
	C368.957,272.062,371.731,267.209,370.447,262.505z M229.517,256h-61.793l36.458-48.611l28.017,49.028
	C231.353,256.148,230.453,256,229.517,256z M248.81,249.902l-41.913-73.351h108.596L248.81,249.902z"/>
<path style="fill:#567795;" d="M119.474,255.996c-1.5,0-3.021-0.384-4.418-1.19c-4.215-2.444-5.655-7.844-3.211-12.065
	c3.88-6.694,9.465-12.276,16.151-16.142c4.22-2.453,9.625-0.995,12.061,3.224c2.44,4.22,0.995,9.621-3.224,12.061
	c-4.018,2.323-7.375,5.681-9.711,9.711C125.483,254.418,122.521,255.996,119.474,255.996z"/>
<path style="fill:#4E5C7A;" d="M150.069,308.966c-15.699,0-30.34-8.448-38.216-22.047c-2.444-4.22-1.004-9.617,3.215-12.061
	c4.224-2.449,9.625-1,12.061,3.215c4.728,8.163,13.517,13.237,22.94,13.237c4.655,0,9.233-1.224,13.237-3.539
	c4.207-2.44,9.617-1,12.061,3.224c2.44,4.22,1,9.617-3.224,12.061C165.461,306.922,157.827,308.966,150.069,308.966z"/>
<path style="fill:#46415F;" d="M203.034,150.069h-31.656c-4.715,0-9.146-1.836-12.483-5.173l-6.241-6.241
	c-3.448-3.448-3.448-9.035,0-12.483s9.035-3.448,12.483,0l6.241,6.241h31.656c4.875,0,8.828,3.953,8.828,8.828
	C211.862,146.115,207.91,150.069,203.034,150.069z"/>
<path style="fill:#413241;" d="M273.655,291.31h-10.763l-1.103-4.414c7.145-4.748,11.866-12.866,11.866-22.069
	c0-14.603-11.881-26.483-26.483-26.483c-14.602,0-26.483,11.88-26.483,26.483c0,13.757,10.545,25.092,23.974,26.36l1.1,4.403
	c1.967,7.874,9.011,13.375,17.128,13.375h10.764c4.875,0,8.828-3.953,8.828-8.828S278.53,291.31,273.655,291.31z M238.345,264.828
	c0-4.867,3.96-8.828,8.828-8.828c4.867,0,8.828,3.96,8.828,8.828s-3.96,8.828-8.828,8.828
	C242.305,273.655,238.345,269.695,238.345,264.828z"/>
<path style="fill:#FFF59B;" d="M397.241,414.897h-70.621c-4.875,0-8.828-3.953-8.828-8.828l0,0c0-4.875,3.953-8.828,8.828-8.828
	h70.621c4.875,0,8.828,3.953,8.828,8.828l0,0C406.069,410.944,402.116,414.897,397.241,414.897z"/>
<g>
	<path style="fill:#FFC373;" d="M211.862,414.897h-61.793c-4.875,0-8.828-3.953-8.828-8.828l0,0c0-4.875,3.953-8.828,8.828-8.828
		h61.793c4.875,0,8.828,3.953,8.828,8.828l0,0C220.69,410.944,216.737,414.897,211.862,414.897z"/>
	<path style="fill:#FFC373;" d="M114.759,414.897h-8.828c-4.875,0-8.828-3.953-8.828-8.828l0,0c0-4.875,3.953-8.828,8.828-8.828
		h8.828c4.875,0,8.828,3.953,8.828,8.828l0,0C123.586,410.944,119.634,414.897,114.759,414.897z"/>
</g>
<path style="fill:#FFF59B;" d="M291.31,414.897h-8.828c-4.875,0-8.828-3.953-8.828-8.828l0,0c0-4.875,3.953-8.828,8.828-8.828h8.828
	c4.875,0,8.828,3.953,8.828,8.828l0,0C300.138,410.944,296.185,414.897,291.31,414.897z"/>
<g>
</g>
<g>
</g>
<g>
</g>
<g>
</g>
<g>
</g>
<g>
</g>
<g>
</g>
<g>
</g>
<g>
</g>
<g>
</g>
<g>
</g>
<g>
</g>
<g>
</g>
<g>
</g>
<g>
</g>
</svg>
