<?xml version="1.0" encoding="UTF-8" standalone="no"?>
<svg
   width="218"
   height="218"
   version="1.1"
   id="svg28"
   sodipodi:docname="magnifier.svg"
   inkscape:version="1.1.2 (b8e25be833, 2022-02-05)"
   xmlns:inkscape="http://www.inkscape.org/namespaces/inkscape"
   xmlns:sodipodi="http://sodipodi.sourceforge.net/DTD/sodipodi-0.dtd"
   xmlns="http://www.w3.org/2000/svg"
   xmlns:svg="http://www.w3.org/2000/svg">
  <defs
     id="defs32" />
  <sodipodi:namedview
     id="namedview30"
     pagecolor="#ffffff"
     bordercolor="#666666"
     borderopacity="1.0"
     inkscape:pageshadow="2"
     inkscape:pageopacity="0.0"
     inkscape:pagecheckerboard="0"
     showgrid="false"
     inkscape:zoom="2"
     inkscape:cx="93.25"
     inkscape:cy="143"
     inkscape:window-width="1280"
     inkscape:window-height="1373"
     inkscape:window-x="-9"
     inkscape:window-y="-9"
     inkscape:window-maximized="0"
     inkscape:current-layer="svg28" />
  <path
     d="M209.33 170.924l-54.375-54.394c5.082-10.625 8-22.48 8-35.045C162.966 36.482 126.48 0 81.48 0S0 36.482 0 81.48s36.48 81.48 81.48 81.48c12.573 0 24.42-2.936 35.056-8l54.383 54.375c10.598 10.61 27.804 10.61 38.408 0 10.61-10.612 10.61-27.815 0-38.405zM18.108 81.48c0-35.013 28.372-63.376 63.374-63.376s63.374 28.364 63.374 63.376c0 34.99-28.37 63.374-63.374 63.374s-63.374-28.38-63.374-63.374zm178.415 115.044a9.05 9.05 0 0 1-12.801 0l-51.415-51.42c4.722-3.8 9.015-8.084 12.803-12.806l51.412 51.426c1.7 1.697 2.654 4 2.654 6.4s-.955 4.704-2.654 6.4z"
     fill="#ff7a7a"
     fill-rule="nonzero"
     id="path26" />
  <path
     style="fill:#5b6b4d;stroke-width:0.249714;fill-opacity:1"
     d="m 186.91065,216.98745 c -3.95782,-0.48593 -8.3193,-2.10732 -11.79701,-4.38557 -1.3957,-0.91432 -8.33004,-7.69345 -30.16161,-29.48649 l -28.34923,-28.2992 -3.22834,1.39225 c -6.98844,3.01382 -13.842844,4.88423 -22.104128,6.03169 -2.355936,0.32723 -4.805486,0.43201 -9.988545,0.42724 -7.296505,-0.007 -10.031963,-0.25956 -16.067262,-1.48516 C 40.985366,156.26195 20.124846,140.3145 8.8786346,118.11455 0.35451794,101.28799 -2.0242812,81.910671 2.1651133,63.427262 8.383869,35.990412 28.658505,13.505345 55.311569,4.4865406 61.396801,2.4274342 67.187622,1.1691607 73.665521,0.49845648 77.656647,0.08522599 86.255898,0.14880615 90.396334,0.62215887 112.1653,3.1108817 131.29424,13.677374 145.08337,30.830322 c 15.05435,18.726816 20.95051,43.606502 15.9605,67.347669 -1.19412,5.681319 -2.27272,8.914219 -5.92373,17.755259 -0.28212,0.68315 0.0108,0.98669 27.82918,28.84193 17.67371,17.69711 28.54588,28.76805 29.27646,29.81173 1.61169,2.30237 3.3046,5.98537 4.08327,8.88335 0.58675,2.18372 0.65603,2.8898 0.65603,6.68667 0,3.8165 -0.0675,4.49668 -0.66865,6.7364 -2.63323,9.81107 -10.61454,17.488 -20.39609,19.61826 -2.63356,0.57355 -6.51887,0.77921 -8.98969,0.47586 z m 7.16958,-18.60484 c 4.51762,-2.21026 6.40931,-7.59799 4.29937,-12.24509 -0.45452,-1.00108 -5.36878,-6.04468 -26.92599,-27.6347 l -26.36999,-26.41013 -0.874,1.0621 c -3.02799,3.67969 -7.58613,8.24207 -11.10951,11.11984 l -0.99611,0.81358 26.09233,26.10855 c 14.35078,14.3597 26.57396,26.39543 27.16261,26.74606 1.7665,1.05222 2.97854,1.33696 5.2389,1.23073 1.61794,-0.076 2.3706,-0.24699 3.48239,-0.79094 z M 89.39748,144.43089 c 11.11216,-1.35588 21.04593,-5.38349 30.34021,-12.3013 3.1288,-2.3288 9.07707,-8.07764 11.33528,-10.95526 4.6641,-5.94339 8.31344,-12.65293 10.62965,-19.54331 3.31755,-9.869196 4.10416,-21.008787 2.23041,-31.586346 -3.45,-19.475688 -16.42563,-36.663428 -34.30875,-45.445923 -4.66246,-2.289765 -7.65677,-3.399088 -12.469406,-4.619639 -5.682184,-1.44108 -9.281024,-1.867607 -15.74823,-1.866447 -5.714737,0.001 -7.806778,0.202231 -13.059197,1.25599 -6.436506,1.291316 -14.822726,4.644907 -20.324799,8.127745 -5.676712,3.593387 -12.382655,9.517875 -16.079545,14.205776 -7.632315,9.678279 -12.379095,21.245639 -13.610542,33.167332 -0.380502,3.683656 -0.163608,13.081281 0.375643,16.275967 2.341646,13.872595 8.313628,25.624045 17.887024,35.197445 13.937986,13.93798 33.078184,20.49466 52.802252,18.08797 z"
     id="path258" />
  <path
     style="fill:#554a30;fill-opacity:1;stroke-width:0.0110485"
     d="m 79.969357,162.9418 c -0.334218,-0.005 -0.613884,-0.0117 -0.62148,-0.0144 -0.01,-0.004 -0.01381,-0.0401 -0.01381,-0.13109 v -0.12622 l 2.682034,-0.006 c 2.508046,-0.005 3.050283,-0.0107 4.134918,-0.0407 1.53321,-0.0424 3.018328,-0.13057 3.911184,-0.23229 0.140235,-0.016 0.132582,-0.0182 0.132582,0.0379 0,0.0585 0.042,0.0487 -0.403271,0.0946 -3.291504,0.33939 -6.402088,0.47178 -9.822156,0.41802 z"
     id="path1605" />
  <path
     style="fill:#554a30;fill-opacity:1;stroke-width:0.0110485"
     d="m 71.417785,162.33992 c -0.06684,-0.009 -0.295549,-0.0382 -0.508233,-0.0656 -2.708082,-0.34882 -5.495525,-0.85697 -8.214592,-1.49751 -0.57964,-0.13655 -1.811371,-0.44383 -1.969403,-0.49132 -0.01581,-0.005 -0.01934,-0.0188 -0.01934,-0.0769 0,-0.0391 0.0019,-0.0711 0.0042,-0.0711 0.0023,0 0.15767,0.0399 0.345267,0.0886 1.588437,0.41263 3.167175,0.76909 5.009095,1.13101 1.816851,0.35699 3.076803,0.57542 4.343442,0.753 0.328747,0.0461 1.120434,0.14871 1.147266,0.14871 0.0063,0 0.01147,0.0224 0.01147,0.0497 0,0.0331 -0.0046,0.0493 -0.01381,0.0484 -0.0076,-7.4e-4 -0.0685,-0.008 -0.135345,-0.0171 z"
     id="path1644" />
  <path
     style="fill:#554a30;fill-opacity:1;stroke-width:0.0078125"
     d="m 59.277344,140.95766 c -1.809781,-0.67579 -3.454515,-1.37433 -5.209665,-2.2126 -0.511544,-0.24432 -1.714963,-0.84853 -2.022757,-1.01558 l -0.06445,-0.035 v -0.054 -0.054 l 0.05664,0.0304 c 0.337103,0.18068 1.54802,0.7903 1.994141,1.00391 1.786334,0.85535 3.473779,1.5751 5.241167,2.23552 0.155249,0.058 0.306001,0.11437 0.335005,0.12524 l 0.05273,0.0198 v 0.0462 c 0,0.0319 -0.003,0.0461 -0.0098,0.046 -0.0054,-1.2e-4 -0.173243,-0.0613 -0.373047,-0.13587 z"
     id="path1683" />
</svg>
