<?xml version="1.0" encoding="UTF-8" standalone="no"?>
<svg
   focusable="false"
   x="0px"
   y="0px"
   width="30"
   height="30"
   viewBox="0 0 171 171"
   style=" fill:#000000;"
   version="1.1"
   id="svg1752"
   sodipodi:docname="search.svg"
   inkscape:version="1.1.2 (b8e25be833, 2022-02-05)"
   xmlns:inkscape="http://www.inkscape.org/namespaces/inkscape"
   xmlns:sodipodi="http://sodipodi.sourceforge.net/DTD/sodipodi-0.dtd"
   xmlns="http://www.w3.org/2000/svg"
   xmlns:svg="http://www.w3.org/2000/svg">
  <defs
     id="defs1756" />
  <sodipodi:namedview
     id="namedview1754"
     pagecolor="#ffffff"
     bordercolor="#666666"
     borderopacity="1.0"
     inkscape:pageshadow="2"
     inkscape:pageopacity="0.0"
     inkscape:pagecheckerboard="0"
     showgrid="false"
     inkscape:zoom="16"
     inkscape:cx="14.96875"
     inkscape:cy="24.875"
     inkscape:window-width="1280"
     inkscape:window-height="1373"
     inkscape:window-x="-9"
     inkscape:window-y="-9"
     inkscape:window-maximized="0"
     inkscape:current-layer="svg1752" />
  <g
     fill="none"
     fill-rule="nonzero"
     stroke="none"
     stroke-width="1"
     stroke-linecap="butt"
     stroke-linejoin="miter"
     stroke-miterlimit="10"
     stroke-dasharray=""
     stroke-dashoffset="0"
     font-family="none"
     font-weight="none"
     font-size="none"
     text-anchor="none"
     style="mix-blend-mode: normal"
     id="g1750">
    <path
       d="M0,171.99609v-171.99609h171.99609v171.99609z"
       fill="none"
       id="path1744" />
    <g
       fill="#ff7a7a"
       id="g1748">
      <path
         d="M74.1,17.1c-31.41272,0 -57,25.58728 -57,57c0,31.41272 25.58728,57 57,57c13.6601,0 26.20509,-4.85078 36.03692,-12.90293l34.03301,34.03301c1.42965,1.48907 3.55262,2.08891 5.55014,1.56818c1.99752,-0.52073 3.55746,-2.08067 4.07819,-4.07819c0.52073,-1.99752 -0.0791,-4.12049 -1.56818,-5.55014l-34.03301,-34.03301c8.05215,-9.83182 12.90293,-22.37682 12.90293,-36.03692c0,-31.41272 -25.58728,-57 -57,-57zM74.1,28.5c25.2517,0 45.6,20.3483 45.6,45.6c0,25.2517 -20.3483,45.6 -45.6,45.6c-25.2517,0 -45.6,-20.3483 -45.6,-45.6c0,-25.2517 20.3483,-45.6 45.6,-45.6z"
         id="path1746" />
    </g>
  </g>
  <path
     style="fill:#5b6b4d;stroke-width:0.0343643;fill-opacity:1"
     d="m 25.815034,26.974079 c -0.07149,-0.01754 -0.179737,-0.0567 -0.240549,-0.08703 -0.06081,-0.03033 -1.489453,-1.432512 -3.174756,-3.115968 L 19.33554,20.710251 18.963302,20.98803 C 15.395263,23.650658 10.584579,23.642249 7.0012777,20.967123 6.430611,20.54109 5.4687681,19.583412 5.0562251,19.030493 3.9644823,17.567264 3.3095169,15.961392 3.0970084,14.226804 2.8550565,12.251887 3.1871416,10.322212 4.0731287,8.5547784 5.0627989,6.5805107 6.642134,5.0140159 8.6254296,4.0394894 9.6114199,3.5550059 10.472079,3.2901617 11.666667,3.1036319 c 0.558139,-0.087151 2.073805,-0.087048 2.66323,1.811e-4 1.546606,0.2288827 2.928931,0.7536828 4.173254,1.5843773 1.989174,1.3279479 3.435618,3.2947155 4.090898,5.5624997 0.121983,0.422156 0.212742,0.846478 0.299193,1.398795 0.09612,0.614061 0.08622,2.143657 -0.0182,2.812906 -0.262611,1.683133 -0.963383,3.321739 -1.977675,4.624372 -0.08719,0.11198 -0.158533,0.220029 -0.158533,0.240107 0,0.02008 1.382109,1.420727 3.071354,3.112551 2.80857,2.812857 3.076129,3.090533 3.127148,3.245395 0.117059,0.355315 0.04509,0.699838 -0.20409,0.976985 -0.231678,0.257682 -0.612634,0.387243 -0.91821,0.312278 z M 13.934708,20.957591 c 1.985101,-0.216269 3.929225,-1.257431 5.194342,-2.781794 1.285904,-1.54941 1.936604,-3.428377 1.87334,-5.409474 C 20.97964,12.05394 20.9186,11.612113 20.754285,10.970553 20.197074,8.7949234 18.704558,6.9237361 16.69944,5.8869396 15.91274,5.4801564 15.047578,5.2013336 14.140893,5.0623754 13.586714,4.977442 12.422513,4.9786247 11.85567,5.0646967 10.497818,5.2708795 9.2594027,5.7808807 8.2130584,6.5647887 6.5191302,7.8338577 5.4371127,9.6228433 5.0790446,11.746503 c -0.08876,0.526427 -0.087722,2.03778 0.00174,2.531848 0.3260163,1.800485 1.1013267,3.282527 2.3461238,4.484725 1.7408251,1.681251 4.0552616,2.461709 6.5077996,2.194515 z"
     id="path1795"
     transform="scale(5.7)" />
  <path
     style="fill:none;fill-opacity:1;stroke-width:0.00390625"
     d="m 21.475863,18.258789 c 9.43e-4,-0.0016 0.03066,-0.05127 0.06605,-0.110352 0.283817,-0.473899 0.533758,-0.981067 0.736339,-1.49414 0.267656,-0.67789 0.461283,-1.372096 0.580717,-2.082031 0.0612,-0.363776 0.08926,-0.755754 0.100257,-1.400262 0.01027,-0.602267 -0.0153,-1.203111 -0.06502,-1.527473 -0.02868,-0.187124 -0.100301,-0.588781 -0.117602,-0.659518 -0.0019,-0.0078 -9.26e-4,-0.0089 0.0069,-0.0078 0.01057,0.0015 0.0071,-0.01188 0.03688,0.143893 0.09354,0.48992 0.147216,0.958918 0.170547,1.490234 0.0065,0.147724 0.0065,0.636818 -4e-6,0.779297 -0.01328,0.291704 -0.03153,0.522822 -0.06153,0.779297 -0.165899,1.418478 -0.641395,2.792085 -1.391088,4.018555 -0.03874,0.06338 -0.04608,0.07324 -0.05447,0.07324 -0.0053,0 -0.0089,-0.0013 -0.008,-0.0029 z"
     id="path2002"
     transform="scale(5.7)" />
  <path
     style="fill:none;fill-opacity:1;stroke-width:0.00390625"
     d="m 21.475863,18.258789 c 9.43e-4,-0.0016 0.03066,-0.05127 0.06605,-0.110352 0.283817,-0.473899 0.533758,-0.981067 0.736339,-1.49414 0.267656,-0.67789 0.461283,-1.372096 0.580717,-2.082031 0.0612,-0.363776 0.08926,-0.755754 0.100257,-1.400262 0.01027,-0.602267 -0.0153,-1.203111 -0.06502,-1.527473 -0.02868,-0.187124 -0.100301,-0.588781 -0.117602,-0.659518 -0.0019,-0.0078 -9.26e-4,-0.0089 0.0069,-0.0078 0.01057,0.0015 0.0071,-0.01188 0.03688,0.143893 0.09354,0.48992 0.147216,0.958918 0.170547,1.490234 0.0065,0.147724 0.0065,0.636818 -4e-6,0.779297 -0.01328,0.291704 -0.03153,0.522822 -0.06153,0.779297 -0.165899,1.418478 -0.641395,2.792085 -1.391088,4.018555 -0.03874,0.06338 -0.04608,0.07324 -0.05447,0.07324 -0.0053,0 -0.0089,-0.0013 -0.008,-0.0029 z"
     id="path2041"
     transform="scale(5.7)" />
  <path
     style="fill:none;fill-opacity:1;stroke-width:0.00390625"
     d="m 21.475863,18.258789 c 9.43e-4,-0.0016 0.03066,-0.05127 0.06605,-0.110352 0.283817,-0.473899 0.533758,-0.981067 0.736339,-1.49414 0.267656,-0.67789 0.461283,-1.372096 0.580717,-2.082031 0.0612,-0.363776 0.08926,-0.755754 0.100257,-1.400262 0.01027,-0.602267 -0.0153,-1.203111 -0.06502,-1.527473 -0.02868,-0.187124 -0.100301,-0.588781 -0.117602,-0.659518 -0.0019,-0.0078 -9.26e-4,-0.0089 0.0069,-0.0078 0.01057,0.0015 0.0071,-0.01188 0.03688,0.143893 0.09354,0.48992 0.147216,0.958918 0.170547,1.490234 0.0065,0.147724 0.0065,0.636818 -4e-6,0.779297 -0.01328,0.291704 -0.03153,0.522822 -0.06153,0.779297 -0.165899,1.418478 -0.641395,2.792085 -1.391088,4.018555 -0.03874,0.06338 -0.04608,0.07324 -0.05447,0.07324 -0.0053,0 -0.0089,-0.0013 -0.008,-0.0029 z"
     id="path2080"
     transform="scale(5.7)" />
</svg>
